<svg xmlns="http://www.w3.org/2000/svg" viewBox="6393.80 546.08 1182.01 832.93">
  <path d="M 7158.990 614.210 C 7061.621 711.580 6964.250 808.950 6866.880 906.320 C 6834.930 880.229 6802.980 854.140 6771.030 828.040 C 6798.890 800.830 6826.760 773.620 6854.621 746.420 C 6866.790 734.530 6886.840 713.620 6915.400 685.640 C 6961.330 640.640 6970.010 634.330 6979.650 628.550 C 7015.160 607.290 7048.730 602.330 7061.750 600.900 C 7105.830 596.080 7140.890 607.050 7158.990 614.210 Z" fill="#7849cb"/>
  <path d="M 7519.480 922.879 C 7525.420 927.860 7525.810 936.860 7520.330 942.350 L 7317.890 1144.740 C 7304.100 1158.550 7290.300 1172.360 7276.500 1186.170 C 7254.950 1207.720 7220.510 1209.220 7197.170 1189.629 C 7155.550 1153.420 7077.360 1080.629 7035.750 1044.420 L 6785.610 1294.550 C 6753.410 1326.760 6701.920 1329.010 6667.030 1299.729 L 6630.650 1269.210 L 6537.410 1191.000 L 6443.800 1112.500 L 6478.170 1078.129 C 6503.710 1052.580 6544.550 1050.800 6572.220 1074.030 L 6616.890 1111.530 L 6664.510 1151.470 C 6690.320 1173.129 6728.400 1171.460 6752.220 1147.640 L 6983.340 916.520 C 7002.510 897.350 7033.150 896.010 7053.920 913.440 C 7097.010 950.960 7176.680 1025.050 7219.760 1062.560 C 7287.800 994.520 7355.840 926.490 7423.880 858.450 C 7428.730 853.600 7436.470 853.260 7441.720 857.660 L 7519.480 922.879 Z" fill="#1b192a"/>
</svg>