<svg xmlns="http://www.w3.org/2000/svg" viewBox="369.80 546.08 1182.01 832.93">
  <path d="M 1134.990 614.210 C 1037.620 711.580 940.249 808.950 842.878 906.320 C 810.928 880.229 778.977 854.140 747.027 828.040 C 774.892 800.830 802.756 773.620 830.621 746.420 C 842.790 734.530 862.839 713.620 891.399 685.640 C 937.327 640.640 946.006 634.330 955.654 628.550 C 991.160 607.290 1024.730 602.330 1037.750 600.900 C 1081.830 596.080 1116.890 607.050 1134.990 614.210 Z" fill="#000000"/>
  <path d="M 1495.480 922.879 C 1501.420 927.860 1501.810 936.860 1496.330 942.350 L 1293.890 1144.740 C 1280.100 1158.550 1266.300 1172.360 1252.500 1186.170 C 1230.950 1207.720 1196.510 1209.220 1173.170 1189.629 C 1131.550 1153.420 1053.360 1080.629 1011.750 1044.420 L 761.615 1294.550 C 729.406 1326.760 677.921 1329.010 643.026 1299.729 L 606.648 1269.210 L 513.414 1191.000 L 419.800 1112.500 L 454.168 1078.129 C 479.714 1052.580 520.551 1050.800 548.222 1074.030 L 592.889 1111.530 L 640.509 1151.470 C 666.321 1173.129 704.400 1171.460 728.223 1147.640 L 959.338 916.520 C 978.509 897.350 1009.150 896.010 1029.920 913.440 C 1073.010 950.960 1152.680 1025.050 1195.760 1062.560 C 1263.800 994.520 1331.840 926.490 1399.880 858.450 C 1404.730 853.600 1412.470 853.260 1417.720 857.660 L 1495.480 922.879 Z" fill="#000000"/>
</svg>