<svg xmlns="http://www.w3.org/2000/svg" viewBox="4376.60 538.81 1203.64 847.58">
  <path d="M 5156.090 607.290 C 5056.770 706.610 4957.450 805.930 4858.140 905.250 C 4825.550 878.629 4792.960 852.020 4760.370 825.400 C 4788.790 797.650 4817.210 769.900 4845.640 742.150 C 4858.050 730.020 4878.500 708.690 4907.630 680.150 C 4954.470 634.260 4963.330 627.810 4973.170 621.920 C 5009.380 600.240 5043.630 595.180 5056.900 593.720 C 5101.860 588.810 5137.630 599.990 5156.090 607.290 Z" fill="#7849cb"/>
  <path d="M 5523.780 922.129 C 5529.840 927.220 5530.240 936.400 5524.650 941.990 L 5318.170 1148.430 C 5304.100 1162.520 5290.020 1176.610 5275.950 1190.700 C 5253.970 1212.680 5218.840 1214.210 5195.030 1194.220 C 5152.580 1157.280 5072.830 1083.040 5030.380 1046.110 L 4775.250 1301.240 C 4742.400 1334.090 4689.880 1336.390 4654.290 1306.520 L 4617.180 1275.390 L 4522.090 1195.620 L 4426.600 1115.550 L 4461.660 1080.490 C 4487.710 1054.440 4529.370 1052.620 4557.590 1076.310 L 4603.150 1114.560 L 4651.720 1155.300 C 4678.050 1177.390 4716.890 1175.690 4741.190 1151.390 L 4976.920 915.650 C 4996.480 896.100 5027.740 894.729 5048.920 912.510 C 5092.870 950.770 5174.130 1026.350 5218.080 1064.610 C 5287.480 995.210 5356.880 925.810 5426.280 856.410 C 5431.220 851.470 5439.110 851.129 5444.470 855.620 L 5523.780 922.129 Z" fill="#ffffff"/>
</svg>